<?xml version="1.0" encoding="UTF-8"?>
<svg version="1.1" xmlns="http://www.w3.org/2000/svg" width="512" height="512">
<path d="M0 0 C12.58587099 9.43454008 18.63274857 23.65319983 25.05630493 37.59976196 C26.75571364 41.28768021 28.47679479 44.96548888 30.1953125 48.64453125 C30.54800705 49.40075272 30.9007016 50.15697418 31.26408386 50.93611145 C34.8741728 58.66443349 38.56514519 66.35297703 42.28466797 74.02914429 C42.98310995 75.47073128 43.68055333 76.91280256 44.37695312 78.3553772 C45.34771825 80.36576581 46.32172467 82.37454797 47.296875 84.3828125 C47.84964111 85.52274658 48.40240723 86.66268066 48.97192383 87.8371582 C52.09606009 94.42404182 52.09606009 94.42404182 57.52734375 98.89453125 C66.40212612 99.78634967 74.25429881 96.86739226 82.59375 94.22265625 C84.15643321 93.73776259 85.71950597 93.25412272 87.28294373 92.77166748 C91.38845941 91.50173252 95.48934695 90.21749182 99.58917236 88.92932129 C106.12245275 86.87897057 112.66235142 84.84987223 119.20265007 82.82204437 C121.45924179 82.12005679 123.71370592 81.41157419 125.96791077 80.70196533 C152.63068519 72.35693558 152.63068519 72.35693558 163.52734375 71.89453125 C164.34976562 71.85457031 165.1721875 71.81460938 166.01953125 71.7734375 C188.10475084 71.2293089 210.56316292 78.2521267 226.96484375 93.33203125 C228.8589448 95.15214398 230.69179826 97.01343208 232.52734375 98.89453125 C233.33816406 99.69632812 234.14898437 100.498125 234.984375 101.32421875 C246.65420238 113.45129661 252.51452219 129.28362341 258.83984375 144.58203125 C259.67859697 146.59559465 260.51787538 148.60893936 261.35766602 150.62207031 C263.00645184 154.57903635 264.64940042 158.53835307 266.28808594 162.49951172 C268.18957315 167.09106714 270.12152604 171.66888995 272.06640625 176.2421875 C283.20406669 202.59664506 288.22549881 226.71066214 278.27734375 254.51953125 C270.19753486 274.26486304 257.5058876 286.75138624 240.52734375 298.89453125 C239.16101965 299.89132605 237.79512474 300.88870945 236.4296875 301.88671875 C219.2121921 314.355984 201.08142291 325.53570416 182.52734375 335.89453125 C181.14724121 336.66579346 181.14724121 336.66579346 179.73925781 337.45263672 C142.47761681 358.17498936 107.85228719 374.22188509 64.734375 362.8984375 C47.34575143 357.60306109 32.3647761 347.45065854 17.23779297 337.64794922 C10.04440892 332.99447379 2.79868551 328.4250019 -4.47265625 323.89453125 C-5.54459229 323.22164063 -5.54459229 323.22164063 -6.63818359 322.53515625 C-25.78265089 310.58359531 -45.33048012 303.98815048 -67.28125 299.03515625 C-78.21561644 296.52791299 -85.93020704 292.26414743 -92.47265625 282.89453125 C-97.22519395 273.65043336 -99.02911118 264.03674018 -96.34765625 253.89453125 C-91.20646439 238.49475749 -77.53509907 228.00963274 -63.66015625 220.70703125 C-51.462446 214.81304723 -39.98767079 212.71442905 -26.59765625 212.70703125 C-25.43878906 212.69478516 -24.27992188 212.68253906 -23.0859375 212.66992188 C-17.15937115 212.65976205 -12.05428465 212.83600066 -6.47265625 214.89453125 C-6.79838623 214.22325195 -7.12411621 213.55197266 -7.4597168 212.86035156 C-13.6316751 200.12671773 -19.74301205 187.37398454 -25.66015625 174.51953125 C-31.15490866 162.59601176 -36.87648798 150.79178029 -42.64453125 138.99853516 C-48.12538942 127.787064 -53.48104103 116.53168299 -58.68896484 105.19018555 C-61.55938723 98.95756787 -64.49023591 92.75997101 -67.5 86.59375 C-68.01233437 85.54290222 -68.01233437 85.54290222 -68.53501892 84.4708252 C-70.19448209 81.07038136 -71.86094504 77.67361756 -73.5378418 74.28173828 C-81.0330636 59.03296235 -85.72604646 43.87161105 -80.78515625 26.95703125 C-75.26434455 11.39140938 -65.60162394 0.96802622 -50.84375 -6.421875 C-34.09704345 -13.2587239 -14.58973402 -9.94278861 0 0 Z M-47.28515625 27.64453125 C-51.15446321 33.39321588 -53.40900118 38.87194431 -52.47265625 45.89453125 C-49.42237193 54.3376385 -45.38207114 62.39461008 -41.43026733 70.44317627 C-39.75466573 73.85760369 -38.09140028 77.2780147 -36.4296875 80.69921875 C-36.09266312 81.39308685 -35.75563873 82.08695496 -35.40840149 82.80184937 C-32.24307083 89.33653691 -29.19234459 95.92210744 -26.16015625 102.51953125 C-20.70932413 114.36264084 -15.02712544 126.08280878 -9.29922485 137.79364014 C-3.8427245 148.95504556 1.48592677 160.16104236 6.67114258 171.45166016 C9.65087709 177.91759428 12.69602203 184.34511336 15.8125 190.74609375 C16.17833191 191.4975769 16.54416382 192.24906006 16.92108154 193.02331543 C18.7157251 196.70532133 20.5166678 200.38412497 22.32470703 204.05957031 C22.97952636 205.39776974 23.63431312 206.7359851 24.2890625 208.07421875 C24.86615967 209.24710449 25.44325684 210.41999023 26.0378418 211.62841797 C29.34903155 218.8890468 30.98073115 225.47261299 28.875 233.328125 C26.12569104 240.3252933 21.37914118 244.86854289 14.52734375 247.89453125 C6.82734042 249.48763539 0.57869706 248.11504204 -6.8828125 245.8671875 C-22.23874054 241.32984178 -35.95215571 241.25980701 -50.69921875 248.47265625 C-56.53765577 251.68886722 -62.70529904 255.22407607 -66.47265625 260.89453125 C-67.06205522 264.19252704 -67.06205522 264.19252704 -66.47265625 266.89453125 C-60.8246669 269.57964094 -55.33214054 270.90158757 -49.22265625 272.14453125 C-38.54383861 274.45787391 -28.55349082 277.70387376 -18.47265625 281.89453125 C-17.79525391 282.17071289 -17.11785156 282.44689453 -16.41992188 282.73144531 C2.5204835 290.58772511 19.59477502 302.608782 36.65234375 313.83203125 C60.0771528 329.24093573 82.38606535 340.98389954 111.26049805 335.43920898 C125.54392023 332.33001856 138.41063413 325.07336928 151.15087891 318.16650391 C153.43274321 316.94516499 155.72996431 315.76263976 158.0390625 314.59375 C177.01569409 304.94267207 195.24295323 293.66005815 212.56738281 281.28808594 C214.74874642 279.73711142 216.94651935 278.21087212 219.14453125 276.68359375 C235.30043549 265.36800702 249.11435287 253.39211828 253.08203125 233.05078125 C253.5464292 229.75925895 253.73149964 226.59322957 253.77734375 223.26953125 C253.803125 222.16351563 253.82890625 221.0575 253.85546875 219.91796875 C253.15820392 206.6049956 246.72017862 194.30398697 241.52734375 182.26953125 C240.66165408 180.24916023 239.79666773 178.22848771 238.93237305 176.20751953 C237.64768668 173.2039992 236.36230737 170.20079939 235.07316589 167.19918823 C232.70069341 161.66965844 230.3711802 156.12644223 228.109375 150.55078125 C227.38911133 148.79048584 227.38911133 148.79048584 226.65429688 146.99462891 C225.81752768 144.94156036 224.9908632 142.88432302 224.17773438 140.82177734 C217.90692593 125.58609551 206.74918761 113.20349492 191.55078125 106.6015625 C176.98458808 101.1637788 162.90771351 101.47299673 148.12109375 105.87890625 C147.04877502 106.18886536 145.9764563 106.49882446 144.87164307 106.81817627 C130.73141901 110.93995379 116.68400862 115.37458229 102.63330078 119.78955078 C99.07319308 120.90671937 95.51129596 122.01803626 91.94921875 123.12890625 C90.89168396 123.46331726 89.83414917 123.79772827 88.74456787 124.14227295 C72.83581729 129.0973545 58.84970761 132.82237205 42.97265625 125.7578125 C27.30523425 117.39657888 21.63454216 102.4139271 14.46484375 87.01953125 C13.20860751 84.34440194 11.94971759 81.67053101 10.69084167 78.99664307 C9.84865947 77.20714174 9.00735834 75.41722549 8.16694641 73.62689209 C4.36191817 65.52314717 0.48967459 57.45299391 -3.41015625 49.39453125 C-3.97033447 48.23453613 -4.5305127 47.07454102 -5.10766602 45.87939453 C-6.11836223 43.78990389 -7.13207251 41.70186679 -8.1496582 39.61572266 C-8.98169553 37.90435744 -9.80453687 36.18845967 -10.61401367 34.46630859 C-12.31122018 30.91145305 -13.80683394 27.99932229 -16.91015625 25.51953125 C-17.46574219 25.05804688 -18.02132812 24.5965625 -18.59375 24.12109375 C-28.23341014 17.82825948 -39.36699774 19.90233182 -47.28515625 27.64453125 Z " fill="#000000" transform="translate(198.47265625,121.10546875)"/>
<path d="M0 0 C4.41459799 2.33624773 7.0041147 5.47513486 9 10 C10.47518729 17.700111 7.28609591 23.93340394 3.9375 30.6875 C3.23850586 32.19666992 3.23850586 32.19666992 2.52539062 33.73632812 C-0.36548754 39.70294334 -3.29300513 44.42331755 -9 48 C-14.09407863 49.69802621 -18.90186248 49.8718259 -23.75 47.5 C-27.6335756 44.96142421 -30.030761 41.53974445 -31 37 C-31.13243199 29.64624077 -28.44970724 23.73264386 -25.25 17.25 C-24.81945312 16.33089844 -24.38890625 15.41179688 -23.9453125 14.46484375 C-18.67370378 3.55861133 -12.72220472 -1.90668701 0 0 Z " fill="#000000" transform="translate(210,45)"/>
<path d="M0 0 C0.96292969 0.20496094 1.92585938 0.40992187 2.91796875 0.62109375 C9.38721191 2.08935389 14.20130575 3.70752034 18.6875 8.8125 C21.20261366 12.9161065 21.36353585 17.06893831 20.875 21.75 C19.15771412 26.44994029 17.00893334 28.95959499 12.875 31.75 C5.49688885 34.20937038 -1.90170346 32.19576074 -9.25 30.5 C-10.21292969 30.29503906 -11.17585938 30.09007812 -12.16796875 29.87890625 C-19.09880622 28.30588261 -23.64778853 26.48797057 -28.5 21.125 C-30.70035013 16.55504203 -30.93589533 12.73700628 -30.125 7.75 C-23.53672728 -5.19124998 -12.06561072 -2.7843717 0 0 Z " fill="#000000" transform="translate(71.125,117.25)"/>
<path d="M0 0 C5.13308791 2.61320839 8.1797908 5.53937241 10 11 C10.50639466 17.07673594 9.90477264 21.06600432 6 26 C3.40012562 28.1947948 0.60013329 29.9379061 -2.3125 31.6875 C-3.04662109 32.14705078 -3.78074219 32.60660156 -4.53710938 33.08007812 C-6.67745266 34.41138304 -8.83597375 35.70765871 -11 37 C-11.63599121 37.39719238 -12.27198242 37.79438477 -12.92724609 38.20361328 C-18.14559892 41.37871179 -22.03740806 41.94750658 -28 41 C-31.65865252 39.72118127 -34.2717212 37.77526453 -36.9375 34.9375 C-39.00838751 29.21210513 -38.99772165 23.35825118 -36.625 17.75 C-32.84978339 13.79501117 -28.58094799 10.95400964 -24 8 C-22.51886719 7.02740234 -22.51886719 7.02740234 -21.0078125 6.03515625 C-13.78310201 1.34963446 -8.73186868 -0.99287603 0 0 Z " fill="#000000" transform="translate(274,106)"/>
<path d="M0 0 C6.66192451 4.15150423 9.60571949 10.14495813 12.875 17.0625 C13.60203125 18.53299805 13.60203125 18.53299805 14.34375 20.03320312 C17.58871965 26.70895773 19.90965922 31.5252685 17.7890625 39.00390625 C16.05464919 43.39145676 13.48070269 46.22599632 9.25 48.4375 C4.35884344 49.28404633 -0.27106099 49.68870391 -4.63769531 46.98657227 C-10.25537399 42.70243744 -12.90598312 37.2197075 -15.875 30.9375 C-16.3596875 29.95716797 -16.844375 28.97683594 -17.34375 27.96679688 C-20.61335823 21.24035424 -22.83061657 16.30342038 -20.71875 8.92578125 C-19.08184037 4.53993098 -16.79356802 2.46680472 -12.8125 0.125 C-8.27421845 -1.21416505 -4.48197304 -1.69529175 0 0 Z " fill="#000000" transform="translate(111,37)"/>
<path d="M0 0 C3.69840658 2.42046746 5.85935649 5.24088349 7.25 9.4375 C8.04611025 14.14850291 7.73859368 17.44152057 5.625 21.75 C0.58390497 27.454397 -5.46601345 29.72666086 -12.5 32.1875 C-13.34304687 32.50332031 -14.18609375 32.81914062 -15.0546875 33.14453125 C-21.39556982 35.38420069 -28.24988368 37.00315106 -34.81518555 34.71899414 C-38.75437341 32.68031418 -41.24630375 30.59477788 -42.75 26.4375 C-43.27405501 21.54385955 -43.42304168 17.10239258 -41.5625 12.5 C-36.44151439 6.67267155 -30.61184936 4.63794191 -23.4375 2.1875 C-22.43009766 1.82398438 -21.42269531 1.46046875 -20.38476562 1.0859375 C-6.37309769 -3.77022363 -6.37309769 -3.77022363 0 0 Z " fill="#000000" transform="translate(90.75,198.5625)"/>
</svg>
